<?xml version="1.0" encoding="UTF-8" standalone="no"?>
<svg
   xmlns:dc="http://purl.org/dc/elements/1.1/"
   xmlns:cc="http://creativecommons.org/ns#"
   xmlns:rdf="http://www.w3.org/1999/02/22-rdf-syntax-ns#"
   xmlns:svg="http://www.w3.org/2000/svg"
   xmlns="http://www.w3.org/2000/svg"
   xmlns:sodipodi="http://sodipodi.sourceforge.net/DTD/sodipodi-0.dtd"
   xmlns:inkscape="http://www.inkscape.org/namespaces/inkscape"
   id="Layer_1"
   data-name="Layer 1"
   viewBox="0 0 223.95 61.51"
   version="1.1"
   sodipodi:docname="Logo_Side.svg"
   inkscape:version="0.92.3 (2405546, 2018-03-11)">
  <metadata
     id="metadata50">
    <rdf:RDF>
      <cc:Work
         rdf:about="">
        <dc:format>image/svg+xml</dc:format>
        <dc:type
           rdf:resource="http://purl.org/dc/dcmitype/StillImage" />
      </cc:Work>
    </rdf:RDF>
  </metadata>
  <sodipodi:namedview
     pagecolor="#ffffff"
     bordercolor="#666666"
     borderopacity="1"
     objecttolerance="10"
     gridtolerance="10"
     guidetolerance="10"
     inkscape:pageopacity="0"
     inkscape:pageshadow="2"
     inkscape:window-width="1920"
     inkscape:window-height="1011"
     id="namedview48"
     showgrid="false"
     inkscape:zoom="2.2013843"
     inkscape:cx="23.394371"
     inkscape:cy="30.754999"
     inkscape:window-x="0"
     inkscape:window-y="41"
     inkscape:window-maximized="1"
     inkscape:current-layer="g45" />
  <defs
     id="defs5">
    <clipPath
       id="clip-path">
      <rect
         width="224.15"
         height="61.51"
         style="fill:none"
         id="rect2" />
    </clipPath>
  </defs>
  <title
     id="title7">Logo_Side</title>
  <g
     style="clip-path:url(#clip-path)"
     clip-path="url(#clip-path)"
     id="g45">
    <path
       d="M69.31,39.81a1.05,1.05,0,0,1,0,2.1H63A1.06,1.06,0,0,1,62,40.86V28.24a1.05,1.05,0,0,1,2.1,0V39.81Z"
       style="fill:#193b6c;fill-opacity:1"
       id="path9" />
    <path
       d="M78.93,39.81a1.05,1.05,0,0,1,0,2.1H72.61a1.05,1.05,0,0,1,0-2.1h2.1V29.3h-2.1a1.05,1.05,0,0,1,0-2.1h6.31a1.05,1.05,0,0,1,0,2.1h-2.1V39.81Z"
       style="fill:#193b6c;fill-opacity:1"
       id="path11" />
    <path
       d="M87.49,31.4a2.1,2.1,0,1,0-4.21,0v6.31a2.1,2.1,0,0,0,2.1,2.1,2.16,2.16,0,0,0,.61-.08L85.29,39v0a1,1,0,0,1-.38-.55,1,1,0,0,1,.07-.8,1,1,0,0,1,.62-.52,1,1,0,0,1,.8.08,1.13,1.13,0,0,1,.27.2l.76.8a2.23,2.23,0,0,0,.05-.48Zm-6.31,0a4.21,4.21,0,1,1,8.41,0v6.31A4.06,4.06,0,0,1,89,39.84l.14.15v0a1,1,0,0,1,.38.55,1,1,0,0,1-.07.8,1,1,0,0,1-.62.52,1,1,0,0,1-.8-.08,1.12,1.12,0,0,1-.27-.2l-.24-.25a4.21,4.21,0,0,1-6.35-3.63Z"
       style="fill:#193b6c;fill-opacity:1"
       id="path13" />
    <path
       d="M97.1,28.24a1.05,1.05,0,0,1,2.1,0v9.46a4.21,4.21,0,1,1-8.42,0V28.24a1.05,1.05,0,0,1,2.1,0v9.46a2.1,2.1,0,1,0,4.21,0Z"
       style="fill:#193b6c;fill-opacity:1"
       id="path15" />
    <path
       d="M107.76,39.81a1.05,1.05,0,0,1,0,2.1h-6.31a1.05,1.05,0,0,1,0-2.1h2.1V29.3h-2.1a1.05,1.05,0,0,1,0-2.1h6.31a1.05,1.05,0,0,1,0,2.1h-2.1V39.81Z"
       style="fill:#193b6c;fill-opacity:1"
       id="path17" />
    <path
       d="M116.32,31.4a2.1,2.1,0,0,0-2.1-2.1h-2.1V39.81h2.1a2.1,2.1,0,0,0,2.1-2.1Zm-2.1-4.21a4.2,4.2,0,0,1,4.21,4.21v6.31a4.2,4.2,0,0,1-4.21,4.21h-3.15A1.06,1.06,0,0,1,110,40.86V28.24a1.06,1.06,0,0,1,1.05-1.05Z"
       style="fill:#193b6c;fill-opacity:1"
       id="path19" />
    <path
       d="M127,39.81a1.05,1.05,0,0,1,0,2.1h-6.31a1.05,1.05,0,0,1,0-2.1h2.1V29.3h-2.1a1.05,1.05,0,0,1,0-2.1H127a1.05,1.05,0,0,1,0,2.1h-2.1V39.81Z"
       style="fill:#193b6c;fill-opacity:1"
       id="path21" />
    <path
       d="M136.59,27.19a1.05,1.05,0,0,1,0,2.1h-2.1V40.86a1.05,1.05,0,0,1-2.1,0V29.3h-2.1a1.05,1.05,0,0,1,0-2.1Z"
       style="fill:#193b6c;fill-opacity:1"
       id="path23" />
    <path
       d="M142,34.81l-3-5.91v0a1.06,1.06,0,0,1,.84-1.68,1,1,0,0,1,.75.31,1.27,1.27,0,0,1,.2.28L143,32.2l2.21-4.42a1.06,1.06,0,0,1,.21-.28,1,1,0,0,1,.74-.31,1.05,1.05,0,0,1,.84,1.68v0l-3,5.91v6.06a1.05,1.05,0,0,1-2.1,0Z"
       style="fill:#193b6c;fill-opacity:1"
       id="path25" />
    <path
       d="M160.17,40.86a1.05,1.05,0,0,1-2.1,0V28.24a1.06,1.06,0,0,1,1.05-1.05,1,1,0,0,1,.75.31,1.27,1.27,0,0,1,.2.28l4.31,8.62V28.24a1.05,1.05,0,0,1,2.1,0V40.86a1.06,1.06,0,0,1-1.05,1.05,1,1,0,0,1-.74-.32.92.92,0,0,1-.21-.27l-4.31-8.62Z"
       style="fill:#193b6c;fill-opacity:1"
       id="path27" />
    <path
       d="M175,27.19a1.05,1.05,0,0,1,0,2.1h-5.26V33.5H174a1.05,1.05,0,0,1,0,2.1h-4.21v4.21H175a1.05,1.05,0,0,1,0,2.1h-6.31a1.06,1.06,0,0,1-1.05-1.05V28.24a1.06,1.06,0,0,1,1.05-1.05Z"
       style="fill:#193b6c;fill-opacity:1"
       id="path29" />
    <path
       d="M184.65,27.19a1.05,1.05,0,0,1,0,2.1h-2.1V40.86a1.05,1.05,0,0,1-2.1,0V29.3h-2.1a1.05,1.05,0,0,1,0-2.1Z"
       style="fill:#193b6c;fill-opacity:1"
       id="path31" />
    <path
       d="M186.9,28.24a1.05,1.05,0,0,1,2.1,0v11a.53.53,0,0,0,.9.37.5.5,0,0,0,.15-.37V31.4a1.05,1.05,0,0,1,2.1,0v7.89a.53.53,0,1,0,1.05,0v-11a1.05,1.05,0,0,1,2.1,0v11a2.64,2.64,0,0,1-4.21,2.11,2.63,2.63,0,0,1-4.21-2.11Z"
       style="fill:#193b6c;fill-opacity:1"
       id="path33" />
    <path
       d="M202.82,31.4a2.1,2.1,0,1,0-4.21,0v6.31a2.1,2.1,0,1,0,4.21,0Zm-6.31,0a4.21,4.21,0,1,1,8.41,0v6.31a4.21,4.21,0,1,1-8.41,0Z"
       style="fill:#193b6c;fill-opacity:1"
       id="path35" />
    <path
       d="M208.23,29.3V33.5h2.1a2.1,2.1,0,1,0,0-4.21Zm0,11.57a1.05,1.05,0,0,1-2.1,0V28.24a1.06,1.06,0,0,1,1.05-1.05h3.15a4.21,4.21,0,0,1,3,7.18,4.14,4.14,0,0,1-1.42.95l2.45,4.89v0a1.06,1.06,0,0,1-.84,1.68,1,1,0,0,1-.74-.32.92.92,0,0,1-.21-.27l-2.86-5.72h-1.45Z"
       style="fill:#193b6c;fill-opacity:1"
       id="path37" />
    <path
       d="M219.29,33.5l2.86-5.72a1.1,1.1,0,0,1,.21-.28,1,1,0,0,1,.74-.31,1.05,1.05,0,0,1,.84,1.68v0l-2.83,5.66,2.83,5.66v0a1.05,1.05,0,0,1-.84,1.68,1,1,0,0,1-.74-.32,1,1,0,0,1-.21-.27l-2.86-5.72h-1.45v5.26a1.05,1.05,0,0,1-2.1,0V28.24a1.05,1.05,0,0,1,2.1,0V33.5Z"
       style="fill:#193b6c;fill-opacity:1"
       id="path39" />
    <path
       d="M45.66,29.47a6.21,6.21,0,0,0-6.15,5.33H31.18A6.18,6.18,0,0,0,30,32L40,22a4.46,4.46,0,1,0-1.24-1.26l-10,10a6.17,6.17,0,0,0-2.85-1.18V12.37a6.22,6.22,0,1,0-1.77,0V29.54a6.17,6.17,0,0,0-2.85,1.19l-8.1-8.1a2.65,2.65,0,0,0,.28-1.17,2.71,2.71,0,1,0-1.54,2.42L20,32a6.18,6.18,0,0,0-.34,6.91L7,51.61a4.47,4.47,0,1,0,1.22,1.28L20.83,40.27a6.18,6.18,0,0,0,3.31,1.57V52.69a4.45,4.45,0,1,0,1.77,0V41.84a6.18,6.18,0,0,0,2.84-1.17l8.1,8.1a2.71,2.71,0,1,0,1.25-1.25L30,39.41a6.19,6.19,0,0,0,1.18-2.84h8.33a6.22,6.22,0,1,0,6.15-7.1"
       style="fill:#193b6c;fill-opacity:1"
       id="path41" />
    <path
       d="M152.92,34.87a1.38,1.38,0,1,1-1.38-1.38,1.38,1.38,0,0,1,1.38,1.38"
       style="fill:#193b6c;fill-opacity:1"
       id="path43" />
  </g>
</svg>
